<?xml version="1.0" encoding="utf-8"?>
<!-- Generator: Adobe Illustrator 26.1.0, SVG Export Plug-In . SVG Version: 6.00 Build 0)  -->
<svg version="1.1" id="Layer_1" xmlns="http://www.w3.org/2000/svg" xmlns:xlink="http://www.w3.org/1999/xlink" x="0px" y="0px"
	 viewBox="0 0 343 80" style="enable-background:new 0 0 343 80;" xml:space="preserve">
<style type="text/css">
	.st0{fill:#F6D356;}
	.st1{fill:#063968;}
	.st2{fill:#FFFFFF;}
</style>
<path class="st0" d="M67.5,17.2c1.2,0.7,2.1,1.6,2.8,2.8c0.7,1.1,1,2.4,1.1,3.8v32.5c0,1.3-0.4,2.6-1,3.7c-0.7,1.2-1.6,2.1-2.8,2.8
	L39.4,79c-1.1,0.7-2.4,1-3.7,1s-2.6-0.3-3.7-1L3.7,62.8C2.6,62.1,1.6,61.2,1,60c-0.7-1.2-1-2.5-1-3.8V23.8c0-1.3,0.3-2.6,1-3.8
	c0.7-1.1,1.6-2.1,2.7-2.8L31.9,1c1.1-0.7,2.4-1,3.7-1c1.3,0,2.6,0.3,3.7,1L67.5,17.2z"/>
<path class="st1" d="M46,20H26c-2.2,0-4,1.8-4,4v34c0,0.7,0.4,1.4,1.1,1.8c0.6,0.3,1.4,0.3,2.1-0.1L36,52.4l10.9,7.3
	c0.3,0.2,0.7,0.3,1.1,0.3c0.3,0,0.6-0.1,0.9-0.2c0.6-0.3,1.1-1,1.1-1.8V24C50,21.8,48.2,20,46,20z M42,44l-6-4l-6,4l2-6l-4-4h6l2-6
	l2,6h6l-4,4L42,44z"/>
<path class="st2" d="M113.7,24.3c1.7-0.8,2.5-2.2,2.5-4c0-3.5-3-4.9-8.1-4.9H96v19h12.6c5.7,0,8.9-2,8.9-5.6
	C117.6,26.5,116.2,24.9,113.7,24.3z M107.8,19.4c2.8,0,3.9,0.5,3.9,1.8c0,1.3-1.1,1.9-3.9,1.9h-7.1v-3.8H107.8z M108.7,30.4h-8v-3.8
	h8c3,0,4.3,0.2,4.3,1.6C113.1,29.7,111.7,30.4,108.7,30.4z"/>
<path class="st2" d="M122.6,15.4v19h4.7v-19H122.6z"/>
<path class="st2" d="M144.5,14.8c6.4,0,12.1,3.2,12.1,10.1c0,6.9-5.6,10-12.1,10c-6.4,0-12.1-3.2-12.1-10
	C132.4,18,138,14.8,144.5,14.8z M144.5,30.8c4.5,0,7.2-2.2,7.2-5.8S149,19,144.5,19c-4.5,0-7.2,2.3-7.2,5.9S139.9,30.8,144.5,30.8z"
	/>
<path class="st2" d="M169.9,26.8c-7.3-0.3-10.2-2-10.2-6.1c0-4.2,4.2-5.9,10-5.9c3.7,0,6.6,0.6,8.8,1.6v4.9
	c-2.6-1.6-5.4-2.4-8.8-2.4c-3.9,0-5.4,0.5-5.4,1.7c0,1.1,1.2,1.6,5.8,1.7c6.9,0.2,9.9,1.9,9.9,6c0,5-4.7,6.7-10.1,6.7
	c-4.1,0-7.2-0.5-9.7-1.7l0-5.2c2.5,1.8,5.5,2.7,9.7,2.7c3.6,0,5.5-0.8,5.5-2.2S173.9,27,169.9,26.8z"/>
<path class="st2" d="M204.8,19.5v-4.1h-19.4v19h19.4v-4.1h-14.7v-3.8h14.1v-3.8h-14.1v-3.2H204.8z"/>
<path class="st2" d="M220,30.6c3.5,0,7-1,9.1-3l0,5.4c-2.2,1.2-5,2-9.1,2c-6,0-11.5-3.2-11.5-10.1c0-6.9,5.4-10.2,11.5-10.2
	c4.2,0,6.9,0.7,9.1,2V22c-2.3-2.1-5.5-3.2-9.1-3.2c-4.3,0-6.7,2.3-6.7,6C213.2,28.5,215.8,30.6,220,30.6z"/>
<path class="st2" d="M250,23.5c0,4.9-2.3,7.1-6.2,7.1c-3.9,0-6.2-2.1-6.2-7.1v-8.2h-4.7v8.2c0,8.1,5.1,11.2,10.9,11.2
	c5.8,0,10.9-3.1,10.9-11.2v-8.2H250V23.5z"/>
<path class="st2" d="M276.1,34.4h6.4l-6.6-7c2.8-0.8,4.5-2.5,4.5-5.8c0-4.8-3.8-6.3-9.2-6.3h-10.4v19h4.7v-6.5h4.6L276.1,34.4z
	 M265.5,19.5h5.5c3.4,0,4.7,0.6,4.7,2.2c0,1.6-1.3,2.2-4.7,2.2h-5.5V19.5z"/>
<path class="st2" d="M287.2,15.4v19h4.7v-19H287.2z"/>
<path class="st2" d="M317.2,15.4h-21.1v4.1h8.2v14.9h4.7V19.5h8.2V15.4z"/>
<path class="st2" d="M342.1,15.4H336l-6.1,7.9l-6.2-7.9h-6.1l9.8,11.9v7.2h4.7v-7.1L342.1,15.4z"/>
<path class="st2" d="M105.6,62.6c3.5,0,7-1,9.1-3l0,5.4c-2.2,1.2-5,2-9.1,2c-6,0-11.5-3.2-11.5-10.1c0-6.9,5.4-10.2,11.5-10.2
	c4.2,0,6.9,0.7,9.1,2V54c-2.3-2.1-5.5-3.2-9.1-3.2c-4.3,0-6.7,2.3-6.7,6C98.8,60.5,101.4,62.6,105.6,62.6z"/>
<path class="st2" d="M139.5,51.5v-4.1h-19.4v19h19.4v-4.1h-14.7v-3.8h14.1v-3.8h-14.1v-3.2H139.5z"/>
<path class="st2" d="M162.2,47.4V60l-10.5-12.7h-5.9v19h4.5V53l11.2,13.5l5.3-0.1v-19H162.2z"/>
<path class="st2" d="M192,47.4h-21.1v4.1h8.2v14.9h4.7V51.5h8.2V47.4z"/>
<path class="st2" d="M211.5,66.4h6.4l-6.6-7c2.8-0.8,4.5-2.5,4.5-5.8c0-4.8-3.8-6.3-9.2-6.3h-10.4v19h4.7v-6.5h4.6L211.5,66.4z
	 M200.9,51.5h5.5c3.4,0,4.7,0.6,4.7,2.2c0,1.6-1.3,2.2-4.7,2.2h-5.5V51.5z"/>
<path class="st2" d="M239.3,66.4h4.9l-9.1-19h-6.7l-9.1,19h4.9l1.9-4.1h11.3L239.3,66.4z M227.9,58.5l3.9-8.3l3.9,8.3H227.9z"/>
<path class="st2" d="M252.9,62.3V47.4h-4.7v19h16.5v-4.1H252.9z"/>
</svg>
