<?xml version="1.0" standalone="no"?>
<!DOCTYPE svg PUBLIC "-//W3C//DTD SVG 20010904//EN"
 "http://www.w3.org/TR/2001/REC-SVG-20010904/DTD/svg10.dtd">
<svg version="1.0" xmlns="http://www.w3.org/2000/svg"
 width="700.000000pt" height="700.000000pt" viewBox="0 0 700.000000 700.000000"
 preserveAspectRatio="xMidYMid meet">
<metadata>
Created by potrace 1.14, written by Peter Selinger 2001-2017
</metadata>
<g transform="translate(0.000000,700.000000) scale(0.100000,-0.100000)"
fill="#000000" stroke="none">
<path d="M3435 6963 c-53 -31 -643 -373 -735 -425 -19 -11 -183 -106 -365
-211 -181 -105 -442 -255 -580 -335 -137 -79 -295 -170 -350 -202 -123 -72
-667 -385 -715 -412 -19 -11 -77 -45 -128 -74 l-92 -55 2 -1751 3 -1751 117
-68 c113 -65 292 -169 722 -417 280 -161 299 -172 406 -234 108 -62 719 -416
853 -492 48 -28 96 -55 105 -61 32 -19 248 -143 282 -163 19 -11 134 -77 255
-147 121 -70 235 -136 253 -146 l33 -19 67 39 c37 21 139 80 227 131 88 51
230 133 315 182 85 50 173 100 195 112 22 13 81 47 130 75 50 29 108 63 130
75 112 63 383 221 407 237 15 11 30 19 33 19 3 0 34 18 70 39 36 22 74 42 85
46 11 3 20 11 20 16 0 5 4 9 9 9 5 0 240 133 522 296 283 164 528 305 546 315
17 10 50 29 72 43 22 15 43 26 45 26 3 0 39 21 81 46 l75 45 0 1755 c0 982 -4
1754 -9 1754 -4 0 -128 70 -275 155 -147 85 -271 155 -277 155 -5 0 -9 5 -9
10 0 6 -4 10 -10 10 -5 0 -55 27 -111 60 -55 33 -102 60 -104 60 -2 0 -36 19
-77 43 -40 24 -93 55 -118 69 -25 14 -85 49 -135 78 -49 29 -103 60 -120 70
-16 9 -102 59 -190 110 -88 51 -176 101 -195 112 -19 11 -51 29 -70 40 -75 44
-547 317 -580 335 -19 11 -196 113 -393 227 -196 113 -358 206 -360 206 -1 -1
-29 -17 -62 -37z"/>
</g>
</svg>
